<svg xmlns="http://www.w3.org/2000/svg" viewBox="0 0 500 500" width="500" height="500">
  <path d="M 130 120 L 125 127 L 121 140 L 122 143 L 121 145 L 121 395 L 125 407 L 135 418 L 147 423 L 164 423 L 164 410 L 163 409 L 150 409 L 144 407 L 138 402 L 134 394 L 133 388 L 135 379 L 142 371 L 149 368 L 154 368 L 155 367 L 160 367 L 161 368 L 201 368 L 202 367 L 204 368 L 208 367 L 210 368 L 222 368 L 223 367 L 226 368 L 228 367 L 241 367 L 242 368 L 254 368 L 255 367 L 260 367 L 261 368 L 287 368 L 288 367 L 290 368 L 294 367 L 298 368 L 321 368 L 322 367 L 325 368 L 380 368 L 382 367 L 382 111 L 381 110 L 148 110 L 141 112 Z M 245 154 L 261 154 L 265 157 L 265 191 L 303 191 L 305 193 L 305 217 L 300 219 L 279 219 L 278 218 L 265 219 L 265 323 L 263 326 L 240 326 L 238 323 L 239 318 L 238 315 L 238 307 L 239 306 L 238 303 L 239 298 L 238 293 L 238 280 L 239 279 L 238 275 L 238 265 L 239 264 L 238 261 L 238 253 L 239 252 L 238 249 L 239 244 L 238 226 L 239 221 L 238 219 L 221 219 L 220 218 L 201 219 L 198 216 L 198 194 L 201 191 L 238 191 L 239 156 Z M 382 393 L 381 392 L 370 392 L 369 397 L 370 407 L 367 409 L 215 409 L 214 410 L 214 419 L 215 423 L 381 423 L 382 422 Z M 176 379 L 174 380 L 174 439 L 178 438 L 185 431 L 190 429 L 198 435 L 201 439 L 204 440 L 204 380 L 203 379 Z" fill="#B96B47" fill-rule="evenodd"/>
</svg>
