<svg xmlns="http://www.w3.org/2000/svg" viewBox="0 0 500 500" width="500" height="500">
  <path fill="#bb7147" fill-rule="evenodd" d="M 235 6 L 227 13 L 225 17 L 225 28 L 222 31 L 211 37 L 169 65 L 166 68 L 166 75 L 165 76 L 166 78 L 166 105 L 164 107 L 123 107 L 119 110 L 119 112 L 118 113 L 118 138 L 119 139 L 119 142 L 123 145 L 134 145 L 136 147 L 136 350 L 134 352 L 130 353 L 127 357 L 127 373 L 125 375 L 120 375 L 119 376 L 117 376 L 114 380 L 114 404 L 115 406 L 118 408 L 381 408 L 383 407 L 385 404 L 385 379 L 384 377 L 380 375 L 373 375 L 372 374 L 372 356 L 369 353 L 364 351 L 364 149 L 363 148 L 365 145 L 376 145 L 380 142 L 381 140 L 381 112 L 380 110 L 376 107 L 175 107 L 174 106 L 174 74 L 177 71 L 230 36 L 234 36 L 237 38 L 246 38 L 248 36 L 251 35 L 257 27 L 257 17 L 255 13 L 250 8 L 246 6 L 243 6 L 242 5 Z
  M 241 181 L 258 181 L 261 185 L 261 214 L 297 214 L 300 218 L 300 234 L 298 238 L 286 238 L 285 239 L 283 239 L 282 238 L 263 238 L 261 239 L 261 314 L 259 317 L 241 317 L 239 315 L 239 240 L 236 238 L 234 239 L 226 239 L 225 238 L 202 238 L 199 235 L 199 218 L 203 214 L 238 214 L 239 213 L 239 183 Z
  M 241 13 L 242 14 L 244 14 L 249 19 L 249 25 L 248 27 L 244 30 L 238 30 L 234 27 L 234 25 L 233 24 L 234 17 L 238 14 L 240 14 Z"/>
</svg>
