<svg xmlns="http://www.w3.org/2000/svg" viewBox="0 0 64 64" role="img" aria-label="Osasaamise ikoon">
  <title>Osasaamise ikoon</title>
  <g fill="#AF6F4E">
    <!-- chalice -->
    <path d="M23 10h18c1.1 0 2 .9 2 2v7c0 7-4.2 12.8-10 14.4V43h7c1.1 0 2 .9 2 2s-.9 2-2 2H24c-1.1 0-2-.9-2-2s.9-2 2-2h7v-9.6C25.2 31.8 21 26 21 19v-7c0-1.1.9-2 2-2Zm2 4v5c0 6.1 3.1 10.8 7 10.8s7-4.7 7-10.8v-5H25Z"/>
    <!-- bread/plate -->
    <path d="M14 49h36c1.1 0 2 .9 2 2s-.9 2-2 2H14c-1.1 0-2-.9-2-2s.9-2 2-2Z"/>
    <path d="M18 38h12c2.8 0 5 2.2 5 5v2H18c-1.9 0-3.5-1.6-3.5-3.5S16.1 38 18 38Zm4.5 2.8c-.6 0-1 .4-1 1v1.4h2v-1.4c0-.6-.4-1-1-1Zm5 0c-.6 0-1 .4-1 1v1.4h2v-1.4c0-.6-.4-1-1-1Z"/>
    <!-- subtle cross on chalice -->
    <path d="M31 17h2v8h-2z"/>
    <path d="M28 20h8v2h-8z"/>
  </g>
</svg>
