<svg xmlns="http://www.w3.org/2000/svg" viewBox="0 0 64 64" role="img" aria-labelledby="title desc">
  <title id="title">Lastetunni ikoon</title>
  <desc id="desc">Sama stiiliga ühevärviline ikoon, millel on kolm last ja avatud raamat.</desc>
  <g fill="#AF6F4E">
    <!-- laste pead -->
    <circle cx="32" cy="17" r="6"/>
    <circle cx="20" cy="22" r="5"/>
    <circle cx="44" cy="22" r="5"/>

    <!-- laste kehad -->
    <path d="M24 32c0-5.2 3.6-9 8-9s8 3.8 8 9v5H24z"/>
    <path d="M12 36c0-5.1 3.4-9 8-9 2.2 0 4.2.9 5.7 2.5-2.3 1.8-3.7 4.7-3.7 8.1V39H12z"/>
    <path d="M42 37.6c0-3.4-1.4-6.3-3.7-8.1A7.8 7.8 0 0 1 44 27c4.6 0 8 3.9 8 9v3H42z"/>

    <!-- avatud raamat -->
    <path d="M10 43c0-1.1.9-2 2-2h17c1.2 0 2.3.4 3 1.1.7-.7 1.8-1.1 3-1.1h17c1.1 0 2 .9 2 2v12c0 1.1-.9 2-2 2H36c-1.5 0-2.8.5-3.6 1.4a.6.6 0 0 1-.8 0C30.8 57.5 29.5 57 28 57H12c-1.1 0-2-.9-2-2z"/>
    <rect x="30.5" y="43" width="3" height="14" rx="1.5" fill="#FDF4E6"/>
    <rect x="15" y="53" width="12" height="2" rx="1" fill="#FDF4E6" opacity=".95"/>
    <rect x="37" y="53" width="12" height="2" rx="1" fill="#FDF4E6" opacity=".95"/>
  </g>
</svg>
